<?xml version="1.0" standalone="no"?>
<!DOCTYPE svg PUBLIC "-//W3C//DTD SVG 20010904//EN"
 "http://www.w3.org/TR/2001/REC-SVG-20010904/DTD/svg10.dtd">
<svg version="1.0" xmlns="http://www.w3.org/2000/svg"
 width="192.000000pt" height="192.000000pt" viewBox="0 0 192.000000 192.000000"
 preserveAspectRatio="xMidYMid meet">

<g transform="translate(0.000000,192.000000) scale(0.100000,-0.100000)"
fill="#000000" stroke="none">
<path d="M0 960 l0 -960 960 0 960 0 0 960 0 960 -960 0 -960 0 0 -960z m1125
496 c35 -13 86 -38 114 -56 75 -48 164 -150 197 -225 22 -51 33 -65 50 -65 38
0 141 -59 184 -106 23 -25 51 -67 63 -92 29 -65 35 -184 13 -250 -28 -83 -130
-182 -213 -207 -22 -6 -23 -4 -23 48 0 52 2 55 39 80 186 124 113 396 -114
425 l-57 7 -18 57 c-71 230 -307 358 -532 288 -111 -34 -204 -111 -250 -205
-16 -34 -28 -45 -45 -45 -47 0 -136 -43 -180 -86 -118 -118 -117 -298 3 -415
42 -41 44 -46 44 -101 l0 -58 -41 20 c-62 32 -127 103 -162 178 -30 62 -32 75
-32 172 0 94 3 111 27 160 52 107 139 184 244 217 33 10 56 24 62 37 18 39
107 130 165 167 136 88 313 109 462 55z m-418 -518 c40 -40 73 -76 73 -80 0
-5 -9 -8 -20 -8 -19 0 -20 -7 -20 -179 0 -163 2 -180 20 -204 11 -14 20 -28
20 -31 0 -3 -45 -6 -101 -6 -98 0 -101 1 -130 29 l-29 29 0 181 c0 174 -1 181
-20 181 -11 0 -20 6 -20 12 0 15 130 148 144 148 6 0 43 -33 83 -72z m330 -80
c40 -40 73 -76 73 -80 0 -5 -12 -8 -26 -8 l-26 0 4 -139 c3 -128 5 -141 26
-163 12 -14 22 -27 22 -31 0 -4 -43 -7 -95 -7 -100 0 -147 13 -159 45 -3 9 -6
79 -6 156 l0 139 -25 0 c-14 0 -25 3 -25 7 0 11 143 153 155 153 5 0 42 -33
82 -72z m332 -92 c67 -68 72 -75 50 -78 -23 -3 -24 -7 -27 -92 -2 -78 0 -94
18 -118 11 -15 20 -32 20 -38 0 -6 -38 -10 -101 -10 -98 0 -101 1 -130 29 -28
29 -29 32 -29 130 0 98 -1 101 -22 101 -19 0 -9 13 52 75 41 41 79 75 85 75 6
0 44 -33 84 -74z"/>
</g>
</svg>
